<svg width="641" height="543" viewBox="0 0 641 543" fill="none" xmlns="http://www.w3.org/2000/svg">
<g clip-path="url(#clip0)">
<path d="M412.223 180.084C415.003 180.084 417.257 177.833 417.257 175.056C417.257 172.279 415.003 170.028 412.223 170.028C409.442 170.028 407.188 172.279 407.188 175.056C407.188 177.833 409.442 180.084 412.223 180.084Z" fill="#D2A24C"/>
<path d="M590.003 116.508C594.302 116.508 597.786 113.028 597.786 108.735C597.786 104.442 594.302 100.961 590.003 100.961C585.704 100.961 582.219 104.442 582.219 108.735C582.219 113.028 585.704 116.508 590.003 116.508Z" fill="#FF6584"/>
<path d="M79.4897 356.166C81.0781 356.166 82.3657 354.88 82.3657 353.294C82.3657 351.708 81.0781 350.422 79.4897 350.422C77.9014 350.422 76.6138 351.708 76.6138 353.294C76.6138 354.88 77.9014 356.166 79.4897 356.166Z" fill="#FF6584"/>
<path d="M162.038 188.184C162.04 190.675 161.738 193.157 161.139 195.576C155.425 194.726 149.732 193.773 144.094 192.598C129.656 189.577 115.572 185.062 102.07 179.127C104.241 172.126 108.854 166.134 115.071 162.24C121.288 158.346 128.697 156.807 135.954 157.903C143.21 158.999 149.832 162.657 154.618 168.213C159.404 173.769 162.037 180.855 162.038 188.184Z" fill="#FF6584"/>
<path d="M540.197 162.104C541.821 162.104 543.138 160.789 543.138 159.166C543.138 157.544 541.821 156.229 540.197 156.229C538.572 156.229 537.255 157.544 537.255 159.166C537.255 160.789 538.572 162.104 540.197 162.104Z" fill="#F0F0F0"/>
<path d="M271.105 485.419C272.73 485.419 274.046 484.104 274.046 482.482C274.046 480.86 272.73 479.545 271.105 479.545C269.481 479.545 268.164 480.86 268.164 482.482C268.164 484.104 269.481 485.419 271.105 485.419Z" fill="#F0F0F0"/>
<path d="M313.302 526.179C314.926 526.179 316.243 524.864 316.243 523.242C316.243 521.62 314.926 520.304 313.302 520.304C311.678 520.304 310.361 521.62 310.361 523.242C310.361 524.864 311.678 526.179 313.302 526.179Z" fill="#F0F0F0"/>
<path d="M52.5114 410.117C54.1359 410.117 55.4527 408.802 55.4527 407.18C55.4527 405.558 54.1359 404.242 52.5114 404.242C50.887 404.242 49.5701 405.558 49.5701 407.18C49.5701 408.802 50.887 410.117 52.5114 410.117Z" fill="#F0F0F0"/>
<path d="M197.088 355.54C198.712 355.54 200.029 354.225 200.029 352.603C200.029 350.981 198.712 349.666 197.088 349.666C195.463 349.666 194.146 350.981 194.146 352.603C194.146 354.225 195.463 355.54 197.088 355.54Z" fill="#F0F0F0"/>
<path d="M182.561 64.0038C184.185 64.0038 185.502 62.6887 185.502 61.0664C185.502 59.4441 184.185 58.1289 182.561 58.1289C180.936 58.1289 179.62 59.4441 179.62 61.0664C179.62 62.6887 180.936 64.0038 182.561 64.0038Z" fill="#F0F0F0"/>
<path d="M360.341 294.055C361.966 294.055 363.283 292.74 363.283 291.118C363.283 289.496 361.966 288.18 360.341 288.18C358.717 288.18 357.4 289.496 357.4 291.118C357.4 292.74 358.717 294.055 360.341 294.055Z" fill="#F0F0F0"/>
<path d="M382.477 345.178C384.102 345.178 385.419 343.863 385.419 342.24C385.419 340.618 384.102 339.303 382.477 339.303C380.853 339.303 379.536 340.618 379.536 342.24C379.536 343.863 380.853 345.178 382.477 345.178Z" fill="#F0F0F0"/>
<path d="M117.351 70.4429C117.372 85.2744 113.863 99.8986 107.113 113.109C106.22 114.85 105.275 116.561 104.277 118.242C94.3914 134.914 79.6015 148.138 61.9207 156.115C51.934 148.882 42.6012 140.788 34.0293 131.928C32.7218 130.574 31.4282 129.19 30.1484 127.776C28.931 126.422 27.7272 125.04 26.5515 123.631C11.2498 105.372 -0.0536435 82.885 3.33621 59.7141C6.71864 36.6053 24.7529 17.3652 46.2248 8.12173C58.6348 2.7815 72.0203 0.391214 85.5716 0.0457916C96.1674 9.39089 104.521 20.9986 110.011 34.0077C110.703 35.645 111.339 37.3031 111.941 38.9818C115.531 49.0831 117.361 59.7242 117.351 70.4429Z" fill="#D2A24C"/>
<path d="M160.239 75.2788C160.239 89.6691 146.169 103.016 120.616 112.875C115.504 114.85 110.032 116.64 104.277 118.242C82.7354 124.239 57.099 127.562 30.1484 127.776C28.931 126.422 27.7272 125.04 26.5515 123.631C26.8419 123.638 27.1324 123.638 27.4229 123.638C56.691 123.638 84.458 119.935 107.113 113.11C111.298 111.845 115.31 110.477 119.122 109.006C142.614 99.9489 156.089 87.6519 156.089 75.2788C156.089 62.9058 142.613 50.6156 119.122 41.5518C116.797 40.6537 114.404 39.797 111.941 38.9818C111.339 37.3031 110.703 35.645 110.011 34.0077C113.691 35.1545 117.226 36.3796 120.616 37.683C146.169 47.5414 160.239 60.8954 160.239 75.2788Z" fill="#E4E4E4"/>
<path d="M31.7588 23.9348C33.3833 23.9348 34.7002 22.6197 34.7002 20.9974C34.7002 19.375 33.3833 18.0599 31.7588 18.0599C30.1344 18.0599 28.8175 19.375 28.8175 20.9974C28.8175 22.6197 30.1344 23.9348 31.7588 23.9348Z" fill="#F0F0F0"/>
<path d="M93.3248 42.5876C94.9492 42.5876 96.2661 41.2725 96.2661 39.6502C96.2661 38.0279 94.9492 36.7127 93.3248 36.7127C91.7004 36.7127 90.3835 38.0279 90.3835 39.6502C90.3835 41.2725 91.7004 42.5876 93.3248 42.5876Z" fill="#F0F0F0"/>
<path d="M61.5042 97.9219C77.3011 97.9219 90.1071 85.1328 90.1071 69.3565C90.1071 53.5803 77.3011 40.7912 61.5042 40.7912C45.7073 40.7912 32.9013 53.5803 32.9013 69.3565C32.9013 85.1328 45.7073 97.9219 61.5042 97.9219Z" fill="#F0F0F0"/>
<path opacity="0.3" d="M589.728 220.543C583.308 222.436 569.155 223.831 553.59 224.688C538.033 225.538 520.968 225.911 504.116 226.27C474.62 226.906 445.126 227.543 415.634 228.184C411.581 228.273 407.513 228.356 403.432 228.432C401.391 227.085 399.351 225.717 397.331 224.322C400.949 224.342 404.566 224.322 408.157 224.253C423.493 223.949 436.477 222.754 451.266 222.187C474.025 221.31 498.596 222 522.316 222.353C546.036 222.712 573.063 222.581 589.728 220.543Z" fill="#F0F0F0"/>
<path opacity="0.3" d="M137.025 438.319L43.0012 360.094L134.344 441.452C134.52 441.749 134.766 442.001 135.059 442.184C135.353 442.368 135.686 442.48 136.031 442.509C136.376 442.539 136.724 442.486 137.044 442.355C137.365 442.224 137.65 442.018 137.875 441.755C138.1 441.492 138.259 441.179 138.339 440.842C138.419 440.505 138.417 440.154 138.334 439.819C138.251 439.483 138.089 439.171 137.861 438.91C137.633 438.65 137.347 438.447 137.025 438.319H137.025Z" fill="#F0F0F0"/>
<path d="M65.6547 142.069C67.2792 142.069 68.596 140.754 68.596 139.132C68.596 137.51 67.2792 136.194 65.6547 136.194C64.0303 136.194 62.7134 137.51 62.7134 139.132C62.7134 140.754 64.0303 142.069 65.6547 142.069Z" fill="#F0F0F0"/>
<path d="M312.684 479.498L324.85 479.497L330.637 432.632L312.682 432.633L312.684 479.498Z" fill="#FFB6B6"/>
<path d="M309.58 475.531L313.005 475.53L326.374 470.101L333.54 475.53H333.541C337.59 475.53 341.474 477.136 344.337 479.996C347.2 482.856 348.809 486.734 348.809 490.778V491.274L309.581 491.275L309.58 475.531Z" fill="#2F2E41"/>
<path d="M221.574 479.498L209.408 479.497L203.62 432.632L221.576 432.633L221.574 479.498Z" fill="#FFB6B6"/>
<path d="M224.677 491.275L185.448 491.274V490.778C185.449 486.734 187.057 482.856 189.921 479.996C192.784 477.136 196.668 475.53 200.717 475.53H200.718L207.884 470.101L221.253 475.53L224.677 475.531L224.677 491.275Z" fill="#2F2E41"/>
<path d="M265.166 120.337L252.848 129.705L220.124 138.36C220.124 138.36 231.85 220.543 226.316 226.07C220.781 231.596 225.772 231.745 224.661 238.925C223.549 246.104 219.117 265.06 219.117 265.06H316.784C316.784 265.06 317.571 253.279 312.757 250.728C307.942 248.177 317.195 236.269 313.26 234.278C309.326 232.287 314.86 215.016 314.86 215.016L326.853 158.471L294.953 133.545L290.102 121.872L265.166 120.337Z" fill="#D2A24C"/>
<path d="M280.537 193.775C282.891 193.775 284.799 191.869 284.799 189.518C284.799 187.168 282.891 185.262 280.537 185.262C278.183 185.262 276.275 187.168 276.275 189.518C276.275 191.869 278.183 193.775 280.537 193.775Z" fill="#F2F2F2"/>
<path d="M219.117 265.06L215.09 368.632C215.09 368.632 197.7 445.129 200.721 447.14C203.741 449.151 205.021 461.143 205.021 461.143L222.138 463.154C222.138 463.154 222.138 455.11 226.165 452.093C230.193 449.076 267.447 307.293 267.447 307.293L303.792 444.377C303.792 444.377 304.702 452.093 307.722 452.093C310.743 452.093 311.75 463.154 311.75 463.154H328.867V452.093C328.867 452.093 336.558 449.658 333.537 441.613C330.517 433.569 316.784 265.06 316.784 265.06H219.117Z" fill="#2F2E41"/>
<path d="M277.958 114.165C289.358 114.165 298.599 104.936 298.599 93.551C298.599 82.1662 289.358 72.9371 277.958 72.9371C266.558 72.9371 257.317 82.1662 257.317 93.551C257.317 104.936 266.558 114.165 277.958 114.165Z" fill="#FFB6B6"/>
<path opacity="0.1" d="M313.26 186.123L317.287 189.14L319.301 175.062L313.26 186.123Z" fill="black"/>
<path d="M222.054 138.28C222.054 138.28 217.02 137.274 213.999 146.324C210.979 155.374 199.903 189.563 199.903 195.596C199.903 201.63 268.878 228.25 268.878 228.25L261.701 203.106L230.109 186.546L222.054 138.28Z" fill="#D2A24C"/>
<path d="M272.077 224.523C278.572 224.523 283.837 219.264 283.837 212.778C283.837 206.292 278.572 201.034 272.077 201.034C265.583 201.034 260.318 206.292 260.318 212.778C260.318 219.264 265.583 224.523 272.077 224.523Z" fill="#FFB6B6"/>
<path opacity="0.1" d="M229.189 174.091L230.109 186.546L259.323 201.859L233.339 184.454L229.189 174.091Z" fill="black"/>
<path d="M299.417 175.867H299.039V165.498C299.039 164.71 298.883 163.93 298.581 163.202C298.279 162.474 297.837 161.812 297.279 161.255C296.721 160.698 296.058 160.256 295.329 159.954C294.6 159.652 293.819 159.497 293.03 159.497H271.034C270.245 159.497 269.464 159.652 268.735 159.954C268.005 160.256 267.343 160.698 266.785 161.255C266.227 161.812 265.785 162.474 265.483 163.202C265.181 163.93 265.025 164.71 265.025 165.498V222.38C265.025 223.168 265.181 223.948 265.483 224.676C265.785 225.404 266.227 226.066 266.785 226.623C267.343 227.181 268.005 227.623 268.734 227.924C269.464 228.226 270.245 228.381 271.034 228.381H293.03C293.819 228.381 294.6 228.226 295.329 227.924C296.058 227.623 296.721 227.181 297.279 226.623C297.837 226.066 298.279 225.404 298.581 224.676C298.883 223.948 299.039 223.168 299.039 222.38V183.247H299.417V175.867Z" fill="#F0F0F0"/>
<path d="M326.853 158.471C326.853 158.471 329.874 160.482 331.887 169.532C333.901 178.582 346.99 212.771 341.956 220.815C336.922 228.86 335.435 237.445 318.319 225.379L294.633 203.721L311.75 187.632L318.798 192.66L326.853 158.471Z" fill="#D2A24C"/>
<path d="M282.301 184.849C285.081 184.849 287.335 182.598 287.335 179.822C287.335 177.045 285.081 174.794 282.301 174.794C279.52 174.794 277.266 177.045 277.266 179.822C277.266 182.598 279.52 184.849 282.301 184.849Z" fill="#D2A24C"/>
<path d="M296.874 202.581C303.369 202.581 308.634 197.323 308.634 190.837C308.634 184.35 303.369 179.092 296.874 179.092C290.379 179.092 285.114 184.35 285.114 190.837C285.114 197.323 290.379 202.581 296.874 202.581Z" fill="#FFB6B6"/>
<path opacity="0.1" d="M228.634 211.682L262.393 226.595L227.696 219.823L228.634 211.682Z" fill="black"/>
<path d="M257.134 97.6591L254.3 86.8875C253.56 84.077 252.815 81.2096 252.981 78.3084C253.147 75.4072 254.379 72.4134 256.826 70.8417C259.274 69.2699 263.01 69.6412 264.585 72.0847C264.884 68.183 268.438 65.1819 272.209 64.1187C275.98 63.0555 279.984 63.4759 283.898 63.6553C287.812 63.8347 291.943 63.7095 295.322 61.7269C295.579 62.4983 295.562 63.3348 295.274 64.0952C294.985 64.8555 294.443 65.4932 293.738 65.9005C294.578 66.1294 295.473 66.0311 296.243 65.6255C297.013 65.22 297.6 64.5374 297.885 63.7161C297.911 65.9757 297.075 68.1604 295.546 69.8268C297.004 69.1045 298.679 68.9497 300.245 69.3925C301.811 69.8353 303.155 70.844 304.018 72.2224C305.742 75.2073 304.776 78.9561 303.767 82.2515L298.59 99.165C297.805 96.5939 297.657 93.8794 297.237 91.2243C296.817 88.5692 296.07 85.8577 294.315 83.8197C292.56 81.7817 289.579 80.6014 287.085 81.6133C285.686 82.1811 284.619 83.3329 283.356 84.1595C280.765 85.8557 277.468 86.099 274.389 85.7538C271.31 85.4087 268.309 84.533 265.23 84.1832C263.303 83.9642 261.152 84.0222 259.697 85.3045C258.697 86.3425 258.036 87.6598 257.803 89.0815C257.116 91.9153 256.847 94.8338 257.002 97.7452" fill="#2F2E41"/>
<g clip-path="url(#clip1)">
<path d="M361.437 428.85L367.068 441.487C362.491 440.758 358.234 444.671 358.138 449.696C358.043 454.72 362.125 459.948 366.703 460.662C365.828 464.564 362.053 466.284 358.776 467.86C355.499 469.437 351.967 472.052 352.211 476.209C352.406 479.547 355.164 482.494 358.092 483.679C361.021 484.863 364.093 484.681 367.059 484.483C362.565 489.188 362.127 498.033 366.074 504.378C370.021 510.724 377.903 513.848 383.805 511.405C379.635 516.597 380.541 526.106 385.716 531.464C390.934 536.866 398.495 537.389 405.105 536.82C421.937 535.395 437.976 529.033 451.214 518.53C456.267 514.511 460.987 509.784 463.87 503.619C466.752 497.454 467.602 489.648 464.917 482.632C465.641 491.421 474.43 498.362 482.337 498.751C490.243 499.139 497.146 494.682 503.013 489.599C510.814 482.839 518.037 473.363 516.967 461.672C516.437 455.884 513.911 450.318 511.434 444.926L506.631 434.473C504.692 430.253 502.71 425.961 499.791 422.42C496.873 418.879 492.823 416.137 488.77 416.163C489.696 411.925 490.627 407.53 489.851 403.027C489.074 398.524 486.1 393.862 482.056 392.808C476.908 391.466 472.546 396.22 467.37 395.772C462.389 395.341 458.272 390.337 453.435 388.354C451.444 387.492 449.244 387.23 447.106 387.601C444.968 387.971 442.984 388.957 441.398 390.438C438.331 393.435 437.053 398.497 438.154 403.286C439.117 407.482 441.683 411.183 443.24 415.229C444.797 419.276 445.038 424.479 442.048 426.689C438.44 429.356 432.947 425.727 430.128 421.337C427.309 416.946 425.691 411.63 422.126 407.938C417.918 403.581 411.332 402.559 407 405.593C402.668 408.626 401.012 415.42 403.196 421.194C404.981 425.916 409.072 430.693 407.653 435.139C406.154 439.838 399.593 439.243 395.635 435.922C391.678 432.601 389.05 427.599 385.141 424.203C381.17 420.754 375.986 419.243 371.434 420.208C369.125 420.745 366.989 421.854 365.221 423.435C363.454 425.016 362.113 427.016 361.322 429.253" fill="#E6E6E6"/>
<path d="M452.606 393.335L440.922 398.768C439.166 399.637 437.174 399.905 435.251 399.534C433.554 399.132 432.408 398.094 432.107 396.685L429.388 383.975C428.875 381.578 430.859 378.741 434.105 377.232L440.558 374.231C443.804 372.721 447.249 373.033 448.749 374.972L456.7 385.248C457.582 386.388 457.635 387.934 456.848 389.49C455.891 391.201 454.401 392.552 452.606 393.335Z" fill="#3F3D56"/>
<path d="M90.3138 158.435C101.298 128.344 118.44 100.881 140.641 77.8035C159.477 58.2322 188.791 59.0454 188.791 59.0454L188.959 58.8374C196.014 50.1291 205.482 43.7001 216.174 40.3569C226.866 37.0138 238.306 36.9055 249.06 40.0455C251.855 40.8483 254.004 41.2041 255.027 40.8466C273.668 34.3164 272.792 19.5772 288.876 7.70337C317.037 -13.087 410.444 10.728 423.615 48.9846C434.29 79.9908 481.942 95.0192 499.744 118.736C502.528 122.445 505.26 126.196 507.938 129.991C509.194 131.754 510.436 133.53 511.664 135.319C524.277 153.602 535.592 172.748 545.526 192.616C552.041 205.598 557.702 218.99 562.475 232.709C581.042 287.034 574.693 327.508 523.5 317.509C517.44 316.322 511.526 315.26 505.757 314.323C497.403 312.959 489.341 311.838 481.57 310.959C471.106 309.768 461.15 308.988 451.703 308.618C448.527 308.49 445.409 308.405 442.349 308.361C397.108 307.733 363.549 316.256 337.984 329.486C333.65 331.723 329.543 334.089 325.663 336.585C319.737 340.377 314.078 344.573 308.728 349.142C301.323 355.502 294.495 362.505 288.323 370.069L287.984 370.484C258.082 407.094 248.241 447.623 227.441 454.758C138.525 485.268 82.2901 374.671 76.5231 266.483C76.2319 261.031 76.071 255.595 76.0405 250.174C76.0225 247.751 76.0344 245.335 76.0762 242.925C76.1675 236.638 76.4444 230.391 76.9082 224.219C77.0813 221.86 77.2822 219.513 77.5108 217.178C77.7627 214.661 78.0367 212.158 78.3534 209.671C80.6153 191.442 84.5724 174.099 90.3138 158.435Z" fill="#D2A24C"/>
<path d="M365.907 217.959C358.806 221.268 358.689 236.09 360.916 240.892L364.951 249.585L390.672 237.624L386.637 228.931C384.406 224.131 373.013 214.662 365.907 217.959Z" fill="#3F3D56"/>
<path d="M296.788 342.762C296.335 342.762 295.889 342.652 295.488 342.443C295.087 342.234 294.742 341.931 294.482 341.56C294.223 341.188 294.057 340.76 293.998 340.311C293.939 339.862 293.99 339.405 294.145 338.979C294.271 338.632 294.465 338.312 294.715 338.04C294.965 337.768 295.266 337.548 295.602 337.393L428.432 275.622C428.767 275.467 429.129 275.378 429.498 275.363C429.867 275.347 430.235 275.404 430.582 275.531C430.929 275.658 431.248 275.852 431.519 276.102C431.791 276.352 432.011 276.653 432.167 276.988C432.48 277.665 432.513 278.439 432.257 279.14C432.001 279.841 431.478 280.412 430.802 280.727H430.801L297.971 342.498C297.601 342.671 297.197 342.761 296.788 342.762Z" fill="#3F3D56"/>
<path d="M400.691 243.168L362.722 260.825L422.282 389.135L460.251 371.478L400.691 243.168Z" fill="#E6E6E6"/>
<path d="M258.158 81.6462C251.057 84.9552 250.94 99.7767 253.167 104.579L257.202 113.272L282.923 101.311L278.888 92.618C276.657 87.8176 265.264 78.3483 258.158 81.6462Z" fill="#3F3D56"/>
<path d="M417.263 408.086L405.579 413.519C403.823 414.387 401.831 414.656 399.907 414.284C398.211 413.883 397.065 412.845 396.764 411.435L394.045 398.726C393.532 396.328 395.516 393.492 398.762 391.982L405.214 388.981C408.461 387.472 411.906 387.784 413.406 389.722L421.357 399.999C422.239 401.138 422.292 402.684 421.505 404.241C420.548 405.952 419.058 407.302 417.263 408.086Z" fill="#3F3D56"/>
<path d="M381.341 425.924L369.657 431.358C367.9 432.226 365.908 432.494 363.985 432.123C362.289 431.721 361.143 430.683 360.842 429.274L358.123 416.564C357.61 414.167 359.593 411.33 362.84 409.821L369.292 406.82C372.539 405.31 375.984 405.622 377.483 407.561L385.435 417.837C386.316 418.977 386.37 420.523 385.583 422.079C384.626 423.79 383.136 425.141 381.341 425.924Z" fill="#3F3D56"/>
<path d="M303.074 128.68L265.105 146.337L385.499 405.702L423.468 388.045L303.074 128.68Z" fill="#E6E6E6"/>
<path d="M342.47 262.382L338.21 252.999L340.662 251.867L344.91 261.22L406.415 397.715L403.965 398.855" fill="#3F3D56"/>
<path d="M390.523 254.583L386.263 245.199L388.715 244.067L392.963 253.421L454.468 389.916L452.018 391.055" fill="#3F3D56"/>
<path d="M320.995 149.437L269.549 173.361C266.273 168.261 256.399 142.124 258.616 134.369L256.952 126.974L292.475 110.455L297.23 116.309C304.288 118.477 318.028 143.026 320.995 149.437Z" fill="#E6E6E6"/>
<path d="M293.959 110.771L257.302 127.818C255.949 128.448 254.508 128.216 254.084 127.302C254.023 127.17 253.985 127.028 253.972 126.884L252.075 106.626C251.993 105.759 252.735 104.776 253.868 104.249L278.178 92.9437C279.311 92.4169 280.539 92.4837 281.149 93.1053L295.394 107.621C296.122 108.364 295.727 109.634 294.51 110.46C294.335 110.578 294.151 110.682 293.959 110.771Z" fill="#E6E6E6"/>
<path d="M322.711 269.484C322.314 269.485 321.919 269.438 321.533 269.345C320.989 269.232 320.479 268.996 320.04 268.656C319.601 268.315 319.247 267.878 319.003 267.379L296.591 219.098C295.664 217.099 296.909 214.543 299.367 213.4L332.183 198.139C334.642 196.995 337.396 197.692 338.324 199.691L360.736 247.972C360.96 248.48 361.064 249.033 361.042 249.588C361.019 250.144 360.87 250.686 360.605 251.175C360.03 252.281 359.097 253.161 357.96 253.67L325.143 268.93C324.382 269.289 323.552 269.478 322.711 269.484Z" fill="#3F3D56"/>
<path d="M327.199 276.792L289.23 294.449L348.79 422.76L386.759 405.103L327.199 276.792Z" fill="#E6E6E6"/>
<path d="M280.421 112.888L269.287 118.066C267.138 119.065 264.239 117.4 262.826 114.355C261.412 111.309 262.01 108.018 264.159 107.019L275.294 101.841C277.442 100.842 280.341 102.507 281.755 105.552C283.168 108.597 282.57 111.889 280.421 112.888Z" fill="#3F3D56"/>
<path d="M293.156 251.239C286.055 254.548 285.938 269.37 288.164 274.172L292.199 282.865L317.92 270.904L313.885 262.211C311.654 257.411 300.262 247.942 293.156 251.239Z" fill="#3F3D56"/>
<path d="M175.2 221.654C172.692 223.327 170.125 219.346 172.681 217.748C175.189 216.075 177.756 220.056 175.2 221.654Z" fill="#E6E6E6"/>
<path d="M436.245 164.458C433.737 166.13 431.17 162.15 433.727 160.551C436.234 158.879 438.801 162.86 436.245 164.458Z" fill="#E6E6E6"/>
<path d="M258.319 209.955C255.811 211.627 253.244 207.647 255.8 206.049C258.308 204.376 260.875 208.357 258.319 209.955Z" fill="#E6E6E6"/>
<path d="M175.2 365.945C172.692 367.617 170.125 363.637 172.681 362.039C175.189 360.366 177.756 364.347 175.2 365.945Z" fill="#E6E6E6"/>
<path d="M303.125 40.3158C300.617 41.9882 298.051 38.0076 300.607 36.4094C303.114 34.737 305.681 38.7177 303.125 40.3158Z" fill="#E6E6E6"/>
<path d="M179.745 117.011C177.238 118.683 174.671 114.703 177.227 113.105C179.735 111.432 182.301 115.413 179.745 117.011Z" fill="#E6E6E6"/>
<path d="M357.203 95.0239L355.608 94.6736L355.957 93.076L354.893 92.8427L354.543 94.4403L352.948 94.0906L352.715 95.1552L354.31 95.5055L353.961 97.1025L355.024 97.3358L355.374 95.7382L356.97 96.0885L357.203 95.0239Z" fill="#E6E6E6"/>
<path d="M97.3936 228.121L95.7981 227.771L96.1474 226.174L95.0838 225.94L94.7337 227.537L93.1376 227.188L92.9045 228.252L94.5006 228.603L94.1513 230.2L95.2149 230.433L95.5649 228.836L97.1604 229.186L97.3936 228.121Z" fill="#E6E6E6"/>
<path d="M424.601 296.015C423.273 296.63 421.755 296.694 420.381 296.191C419.007 295.688 417.888 294.66 417.269 293.332L410.703 279.185C410.088 277.857 410.025 276.339 410.528 274.964C411.031 273.589 412.059 272.471 413.386 271.854C414.712 271.237 416.229 271.172 417.603 271.674C418.977 272.176 420.096 273.203 420.714 274.53L427.281 288.677C427.896 290.006 427.959 291.525 427.457 292.9C426.954 294.276 425.927 295.396 424.601 296.015Z" fill="#3F3D56"/>
<path d="M312.91 348.011C311.582 348.627 310.064 348.69 308.69 348.187C307.316 347.684 306.197 346.656 305.578 345.329L299.012 331.182C298.397 329.854 298.334 328.335 298.837 326.961C299.34 325.586 300.368 324.467 301.695 323.85C303.021 323.233 304.538 323.169 305.912 323.671C307.286 324.172 308.405 325.2 309.023 326.527L315.59 340.673C316.205 342.002 316.268 343.521 315.766 344.897C315.263 346.273 314.236 347.393 312.91 348.011Z" fill="#3F3D56"/>
<path d="M414.485 265.106L370.454 285.582C367.651 281.217 359.2 258.847 361.098 252.211L362.029 244.786L388.319 231.876L394.145 236.754C402.353 233.976 414.418 254.334 414.485 265.106Z" fill="#E6E6E6"/>
<path d="M394.043 263.686L382.908 268.864C380.76 269.863 377.49 267.4 375.621 263.374C373.752 259.348 373.98 255.258 376.129 254.259L387.263 249.081C389.412 248.082 392.681 250.545 394.55 254.571C396.419 258.597 396.191 262.687 394.043 263.686Z" fill="#3F3D56"/>
<path d="M299.612 290.331L295.352 280.947L297.804 279.815L302.052 289.168L363.556 425.664L361.106 426.803" fill="#3F3D56"/>
<path d="M341.734 298.386L297.703 318.862C291.207 315.505 281.28 293.539 288.346 285.491L289.278 278.066L315.568 265.156L321.394 270.034C327.434 271.889 339.194 292.9 341.734 298.386Z" fill="#E6E6E6"/>
<path d="M320.385 295.014L309.251 300.192C307.102 301.191 304.036 299.166 302.417 295.678C300.798 292.19 301.229 288.538 303.377 287.539L314.512 282.361C316.661 281.362 319.727 283.387 321.346 286.875C322.965 290.363 322.534 294.015 320.385 295.014Z" fill="#3F3D56"/>
<path d="M97.2309 200.086C134.17 200.086 164.116 170.114 164.116 133.141C164.116 96.1676 134.17 66.1949 97.2309 66.1949C60.2915 66.1949 30.3462 96.1676 30.3462 133.141C30.3462 170.114 60.2915 200.086 97.2309 200.086Z" fill="#FF6584"/>
<path opacity="0.3" d="M371.467 202.868L412.113 84.0493L367.481 201.445C367.261 201.724 367.11 202.051 367.04 202.4C366.971 202.749 366.986 203.109 367.084 203.451C367.182 203.793 367.36 204.106 367.603 204.366C367.846 204.625 368.147 204.823 368.482 204.942C368.817 205.061 369.175 205.099 369.527 205.052C369.879 205.006 370.215 204.875 370.507 204.672C370.799 204.47 371.038 204.2 371.205 203.886C371.372 203.572 371.462 203.223 371.467 202.868H371.467Z" fill="#F0F0F0"/>
<path d="M475.076 132.044C467.119 134.691 458.299 137.291 448.614 139.844C398.518 153.046 331.371 163.343 259.54 168.841C187.711 174.338 119.779 174.378 68.261 168.954C43.1648 166.311 23.3151 162.511 9.26365 157.657C-5.61295 152.519 -13.4299 146.327 -13.9703 139.254C-15.0228 125.475 12.1423 113.348 35.1165 105.601L35.7387 107.448C4.18911 118.087 -12.7745 129.33 -12.0276 139.106C-11.0768 151.556 18.2616 161.728 68.4647 167.015C119.87 172.427 187.676 172.385 259.392 166.897C331.108 161.408 398.132 151.13 448.118 137.958C496.933 125.095 524.386 110.576 523.435 98.1254C522.645 87.7881 502.287 78.9449 466.11 73.224L466.414 71.2982C492.701 75.4551 524.268 83.4577 525.378 97.9768C525.918 105.05 519.132 112.359 505.209 119.701C497.272 123.886 487.188 128.015 475.076 132.044Z" fill="#3F3D56"/>
<path d="M494.73 250.779C498.568 250.779 501.68 247.665 501.68 243.823C501.68 239.981 498.568 236.867 494.73 236.867C490.892 236.867 487.78 239.981 487.78 243.823C487.78 247.665 490.892 250.779 494.73 250.779Z" fill="#FF6584"/>
<path d="M538.887 439.267C542.725 439.267 545.836 436.153 545.836 432.311C545.836 428.469 542.725 425.355 538.887 425.355C535.049 425.355 531.937 428.469 531.937 432.311C531.937 436.153 535.049 439.267 538.887 439.267Z" fill="#F2F2F2"/>
<path d="M301.868 481.621C309.351 481.621 315.418 475.549 315.418 468.059C315.418 460.568 309.351 454.496 301.868 454.496C294.385 454.496 288.318 460.568 288.318 468.059C288.318 475.549 294.385 481.621 301.868 481.621Z" fill="#F2F2F2"/>
<path d="M198.619 302.126C202.457 302.126 205.569 299.011 205.569 295.17C205.569 291.328 202.457 288.214 198.619 288.214C194.781 288.214 191.669 291.328 191.669 295.17C191.669 299.011 194.781 302.126 198.619 302.126Z" fill="#3F3D56"/>
<path d="M432.261 311.179L462.246 318.948L480.637 355.104L449.545 356.325L432.261 311.179Z" fill="#E6E6E6"/>
<path d="M363.051 259.057L379.554 275.584L421.469 366.289L413.752 372.962L363.051 259.057Z" fill="#CCCCCC"/>
<path d="M327.168 274.038L328.463 297.369L368.025 389.126L378.139 387.822L327.168 274.038Z" fill="#CCCCCC"/>
<path d="M326.088 368.29L309.939 394.745L321.844 433.527L345.035 412.763L326.088 368.29Z" fill="#E6E6E6"/>
<path d="M468.742 384.546C460.357 384.546 451.167 384.229 441.172 383.595C389.474 380.309 322.508 368.884 252.612 351.427C182.715 333.969 118.238 312.563 71.0583 291.153C48.0756 280.723 30.4365 270.851 18.6316 261.809C6.13316 252.237 0.666195 243.894 2.38187 237.011C5.72477 223.603 35.3249 220.67 59.5676 220.57L59.5759 222.52C26.2841 222.657 6.64366 227.971 4.27228 237.484C1.25152 249.599 25.8875 268.513 71.8628 289.377C118.939 310.74 183.298 332.105 253.083 349.535C322.869 366.965 389.711 378.369 441.296 381.648C491.673 384.851 522.3 379.739 525.32 367.624C527.828 357.564 511.295 342.746 478.767 325.897L479.663 324.166C503.298 336.408 530.733 353.967 527.21 368.096C525.494 374.978 516.752 379.772 501.226 382.345C492.376 383.811 481.505 384.546 468.742 384.546Z" fill="#3F3D56"/>
</g>
</g>
<defs>
<clipPath id="clip0">
<rect width="641" height="543" fill="white"/>
</clipPath>
<clipPath id="clip1">
<rect width="586" height="537" fill="white" transform="translate(-14)"/>
</clipPath>
</defs>
</svg>
